<?xml version="1.0" encoding="utf-8"?>
<!-- Generator: Adobe Illustrator 24.1.1, SVG Export Plug-In . SVG Version: 6.00 Build 0)  -->
<svg version="1.1" id="Layer_1" xmlns="http://www.w3.org/2000/svg" xmlns:xlink="http://www.w3.org/1999/xlink" x="0px" y="0px"
	 viewBox="0 0 512 512" style="enable-background:new 0 0 512 512;" xml:space="preserve">
<g>
	<path d="M477.8,128c-3.6-6.2-8.5-11.6-13.9-14.7L275.8,4.7c-10.8-6.3-28.6-6.3-39.4,0L48.3,113.3c-10.8,6.3-19.8,21.6-19.8,34.2
		v217.2c0,6.3,2.2,13.2,5.8,19.4c3.5,6.2,8.5,11.6,13.9,14.7l188,108.6c10.9,6.3,28.6,6.3,39.4,0l188.1-108.6
		c5.4-3.1,10.4-8.5,13.9-14.7s5.7-13.2,5.7-19.4V147.4C483.5,141.2,481.3,134.2,477.8,128L477.8,128z M256.1,407.7
		c-83.7,0-151.7-68-151.7-151.7s68-151.7,151.7-151.7c54.2,0.1,104.2,29,131.3,75.7l-65.7,38c-13.6-23.4-38.6-37.8-65.7-37.9
		c-41.8,0-75.8,34-75.8,75.8c0,41.8,34,75.8,75.8,75.8c27.1-0.1,52.1-14.5,65.7-37.9l65.7,38C360.2,378.6,310.2,407.5,256.1,407.7
		L256.1,407.7z M407.7,264.4h-16.8v16.8H374v-16.8h-16.8v-16.8H374v-16.8h16.9v16.8h16.8V264.4z M470.9,264.4H454v16.8h-16.8v-16.8
		h-16.8v-16.8h16.8v-16.8H454v16.8h16.8V264.4z"/>
</g>
</svg>
